<?xml version="1.0" standalone="no"?>
<!DOCTYPE svg PUBLIC "-//W3C//DTD SVG 20010904//EN"
 "http://www.w3.org/TR/2001/REC-SVG-20010904/DTD/svg10.dtd">
<svg version="1.0" xmlns="http://www.w3.org/2000/svg"
 width="400.000000pt" height="400.000000pt" viewBox="0 0 400.000000 400.000000"
 preserveAspectRatio="xMidYMid meet">
<metadata>
Created by potrace 1.14, written by Peter Selinger 2001-2017
</metadata>
<g transform="translate(0.000000,400.000000) scale(0.100000,-0.100000)"
fill="#000000" stroke="none">
<path d="M1970 3390 c-7 -12 -9 -87 -8 -201 3 -161 5 -183 21 -193 12 -8 22
-8 35 0 15 10 17 32 20 193 3 189 -3 221 -38 221 -11 0 -24 -9 -30 -20z"/>
<path d="M2363 3158 c-19 -25 -66 -185 -60 -201 9 -23 34 -32 51 -18 8 6 28
52 45 101 25 71 29 95 21 110 -12 22 -43 26 -57 8z"/>
<path d="M1562 3144 c-8 -14 -2 -41 20 -104 35 -97 43 -110 69 -110 39 0 41
33 5 132 -29 81 -37 93 -59 96 -16 2 -29 -3 -35 -14z"/>
<path d="M1011 2982 c-5 -10 -6 -24 -2 -31 21 -34 257 -261 271 -261 20 0 40
19 40 39 0 8 -57 72 -127 143 -130 131 -161 150 -182 110z"/>
<path d="M2808 2869 c-71 -72 -128 -136 -128 -143 0 -17 21 -36 40 -36 14 0
250 227 271 261 4 7 3 21 -2 31 -21 40 -51 21 -181 -113z"/>
<path d="M3027 2419 c-92 -33 -109 -45 -105 -73 5 -32 39 -31 138 5 84 30 90
34 90 59 0 16 -7 30 -16 34 -20 8 -15 9 -107 -25z"/>
<path d="M1553 2422 c-27 -28 -50 -57 -70 -89 -10 -15 -21 -32 -26 -38 -42
-52 -117 -163 -117 -173 0 -11 80 -124 101 -142 3 -3 69 -86 147 -185 150
-189 278 -350 351 -441 24 -30 52 -54 61 -54 18 0 72 65 411 495 79 99 145
182 148 185 21 18 101 131 101 142 0 8 -24 46 -52 85 -29 39 -60 81 -68 93
-38 56 -93 126 -104 132 -6 4 -203 8 -438 8 -404 0 -429 -1 -445 -18z m272
-126 c-38 -35 -74 -61 -79 -58 -5 3 -6 0 -3 -5 6 -10 -29 -50 -37 -42 -5 5
-66 157 -66 164 0 3 57 5 128 5 l127 0 -70 -64z m535 59 c0 -10 -61 -165 -65
-165 -3 0 -155 129 -189 161 -6 5 46 9 122 9 73 0 132 -2 132 -5z m-270 -92
c25 -22 61 -54 80 -71 l35 -31 -207 -1 -207 0 57 53 c31 29 77 72 102 95 l45
41 25 -23 c14 -12 45 -41 70 -63z m-485 -26 c14 -37 25 -70 25 -72 0 -3 -38
-5 -85 -5 -47 0 -85 2 -85 5 0 17 83 115 92 109 6 -4 8 -3 5 4 -9 14 3 46 14
35 4 -4 19 -38 34 -76z m893 -10 c23 -31 42 -59 42 -62 0 -3 -39 -5 -86 -5
-98 0 -95 -7 -46 103 22 51 27 56 36 40 6 -10 30 -44 54 -76z m-104 -334 c-81
-103 -151 -190 -154 -193 -3 -3 -25 -31 -49 -63 -24 -32 -46 -56 -48 -53 -2 2
40 114 94 250 l98 245 100 3 c55 2 102 2 104 1 2 -1 -63 -87 -145 -190z m-631
-59 c54 -136 96 -249 94 -251 -2 -2 -24 22 -47 54 -24 32 -78 101 -120 153
-42 52 -108 135 -148 185 -40 49 -72 93 -72 97 0 5 44 8 98 8 l98 0 97 -246z
m487 241 c0 -5 -175 -451 -219 -559 -25 -59 -30 -66 -39 -50 -10 20 -90 221
-177 444 -29 74 -56 143 -60 153 -7 16 9 17 244 17 138 0 251 -2 251 -5z"/>
<path d="M851 2416 c-26 -31 -4 -52 89 -85 104 -36 116 -37 130 -12 17 33 2
47 -78 76 -103 36 -125 40 -141 21z"/>
<path d="M616 2024 c-9 -8 -16 -19 -16 -24 0 -5 7 -16 16 -24 13 -13 45 -16
198 -16 188 0 206 4 206 42 0 32 -35 38 -214 38 -145 0 -177 -3 -190 -16z"/>
<path d="M2998 2029 c-21 -12 -23 -40 -6 -57 8 -8 66 -12 194 -12 153 0 185 3
198 16 9 8 16 19 16 24 0 5 -7 16 -16 24 -13 13 -45 16 -192 16 -102 0 -184
-5 -194 -11z"/>
<path d="M2930 1681 c-17 -33 -3 -45 89 -78 99 -37 114 -39 131 -18 25 30 2
52 -90 84 -104 36 -116 37 -130 12z"/>
<path d="M933 1648 c-76 -28 -83 -33 -83 -58 0 -41 22 -43 108 -14 100 34 124
49 120 77 -5 33 -49 31 -145 -5z"/>
<path d="M1141 1186 c-68 -68 -127 -130 -132 -137 -12 -20 9 -49 35 -49 16 0
59 37 149 131 70 72 127 136 127 143 0 17 -21 36 -40 36 -9 0 -72 -56 -139
-124z"/>
<path d="M2692 1298 c-7 -7 -12 -19 -12 -27 0 -25 251 -271 277 -271 25 0 46
29 34 49 -21 34 -257 261 -271 261 -9 0 -21 -5 -28 -12z"/>
<path d="M1642 1057 c-6 -7 -25 -52 -42 -100 -33 -93 -30 -127 9 -127 26 0 33
13 67 113 22 67 26 91 18 105 -14 22 -38 26 -52 9z"/>
<path d="M2320 1051 c-7 -15 -2 -41 24 -113 28 -77 38 -94 57 -96 13 -2 28 3
35 13 11 14 7 32 -18 104 -17 47 -35 92 -41 99 -14 18 -45 15 -57 -7z"/>
<path d="M1972 998 c-15 -15 -17 -360 -2 -389 14 -25 46 -25 60 0 6 12 10 94
10 198 0 183 -4 203 -40 203 -9 0 -21 -5 -28 -12z"/>
</g>
</svg>
